<?xml version="1.0" encoding="iso-8859-1"?>
<!-- Generator: Adobe Illustrator 19.0.0, SVG Export Plug-In . SVG Version: 6.00 Build 0)  -->
<svg version="1.1" id="Capa_1" xmlns="http://www.w3.org/2000/svg" xmlns:xlink="http://www.w3.org/1999/xlink" x="0px" y="0px"
	 viewBox="0 0 197.973 197.973" style="enable-background:new 0 0 197.973 197.973;" xml:space="preserve">
<path style="fill:#777777;" d="M187.733,47.787H10.24c-3.77,0-6.827-3.057-6.827-6.827l0,0c0-3.77,3.057-6.827,6.827-6.827h177.493
	c3.77,0,6.827,3.057,6.827,6.827l0,0C194.56,44.73,191.503,47.787,187.733,47.787z"/>
<path d="M187.733,51.2H10.24C4.593,51.2,0,46.607,0,40.96s4.593-10.24,10.24-10.24h177.493c5.647,0,10.24,4.593,10.24,10.24
	S193.381,51.2,187.733,51.2z M10.24,37.547c-1.882,0-3.413,1.531-3.413,3.413c0,1.882,1.531,3.413,3.413,3.413h177.493
	c1.882,0,3.413-1.531,3.413-3.413c0-1.882-1.531-3.413-3.413-3.413H10.24z"/>
<path style="fill:#777777;" d="M187.733,105.813H10.24c-3.77,0-6.827-3.057-6.827-6.827l0,0c0-3.77,3.057-6.827,6.827-6.827h177.493
	c3.77,0,6.827,3.057,6.827,6.827l0,0C194.56,102.757,191.503,105.813,187.733,105.813z"/>
<path d="M187.733,109.227H10.24c-5.647,0-10.24-4.593-10.24-10.24s4.593-10.24,10.24-10.24h177.493c5.647,0,10.24,4.593,10.24,10.24
	S193.381,109.227,187.733,109.227z M10.24,95.573c-1.882,0-3.413,1.531-3.413,3.413c0,1.882,1.531,3.413,3.413,3.413h177.493
	c1.882,0,3.413-1.531,3.413-3.413c0-1.882-1.531-3.413-3.413-3.413H10.24z"/>
<path style="fill:#777777;" d="M187.733,163.84H10.24c-3.77,0-6.827-3.057-6.827-6.827l0,0c0-3.77,3.057-6.827,6.827-6.827h177.493
	c3.77,0,6.827,3.057,6.827,6.827l0,0C194.56,160.783,191.503,163.84,187.733,163.84z"/>
<path d="M187.733,167.253H10.24c-5.647,0-10.24-4.593-10.24-10.24s4.593-10.24,10.24-10.24h177.493c5.647,0,10.24,4.593,10.24,10.24
	S193.381,167.253,187.733,167.253z M10.24,153.6c-1.882,0-3.413,1.531-3.413,3.413s1.531,3.413,3.413,3.413h177.493
	c1.882,0,3.413-1.531,3.413-3.413s-1.531-3.413-3.413-3.413H10.24z"/>
<g>
</g>
<g>
</g>
<g>
</g>
<g>
</g>
<g>
</g>
<g>
</g>
<g>
</g>
<g>
</g>
<g>
</g>
<g>
</g>
<g>
</g>
<g>
</g>
<g>
</g>
<g>
</g>
<g>
</g>
</svg>
